<svg xmlns="http://www.w3.org/2000/svg" viewBox="0 0 24 24" shape-rendering="crispEdges"><g id="stem"><path d="M11 3H13V8H10V6H11Z" fill="#754126" stroke="none" /><rect x="12" y="3" width="1" height="4" fill="#9B5B2F" stroke="none" /></g><g id="leaf"><path d="M14 3H18V4H20V6H18V7H13V5H14Z" fill="#247A3B" stroke="none" /><path d="M15 4H18V5H19V6H14V5H15Z" fill="#55B84C" stroke="none" /></g><g id="apple"><path d="M8 6H11V7H13V6H18V7H20V9H21V16H20V18H18V20H15V21H10V20H7V19H5V17H4V10H5V8H7V7H8Z" fill="#8F1F32" stroke="none" /><path d="M8 7H11V8H14V7H17V8H19V10H20V15H19V17H17V19H14V20H10V19H7V18H6V16H5V11H6V9H8Z" fill="#EA3B45" stroke="none" /><path d="M17 8H19V10H20V15H19V17H17V19H14V20H12V18H15V17H17V15H18V10H17Z" fill="#B82338" stroke="none" /><path d="M7 9H9V12H7Z" fill="#FFD0C7" stroke="none" /><rect x="9" y="9" width="1" height="1" fill="#FFF0DB" stroke="none" /></g></svg>
