<svg xmlns="http://www.w3.org/2000/svg" viewBox="0 0 24 24" shape-rendering="crispEdges"><g id="string" fill="#62506B" stroke="none"><rect x="12" y="18" width="1" height="2" /><rect x="11" y="19" width="1" height="1" /><rect x="10" y="19" width="1" height="2" /><rect x="9" y="20" width="1" height="2" /><rect x="8" y="21" width="1" height="1" /></g><path id="balloon-outline" fill="#8A2859" stroke="none" d="M8 2H16V3H18V4H19V6H20V11H19V14H18V15H16V16H14V17H10V16H8V15H6V14H5V11H4V7H5V5H6V4H8Z" /><path id="balloon-body" fill="#E94F87" stroke="none" d="M8 3H15V4H17V5H18V7H19V11H18V13H17V14H15V15H9V14H7V12H6V7H7V5H8Z" /><path id="balloon-shade" fill="#C73776" stroke="none" d="M17 6H18V11H17V13H15V14H12V13H15V12H16V10H17Z" /><g id="highlight" fill="#FFD1E2" stroke="none"><rect x="8" y="5" width="2" height="3" /><rect x="10" y="4" width="2" height="1" /></g><path id="knot-outline" fill="#8A2859" stroke="none" d="M10 16H14V17H15V19H13V18H11V19H9V17H10Z" /><rect id="knot" x="11" y="17" width="2" height="1" fill="#E94F87" stroke="none" /></svg>
