<svg xmlns="http://www.w3.org/2000/svg" viewBox="0 0 24 24" shape-rendering="crispEdges"><g id="embers"><rect x="16" y="3" width="1" height="1" fill="#FFD34E" stroke="none" /><rect x="7" y="7" width="1" height="1" fill="#F47A2A" stroke="none" /></g><g id="flames"><path d="M10 19H8V17H6V13H8V10H10V6H12V9H14V11H16V8H18V12H20V17H18V19Z" fill="#C83D2D" stroke="none" /><path d="M9 19V15H10V12H12V9H14V12H16V14H18V17H17V19Z" fill="#F47A2A" stroke="none" /><path d="M11 19V16H12V14H14V12H16V15H17V18H15V19Z" fill="#FFD34E" stroke="none" /></g><g id="crossed-logs"><path d="M4 17H7V18H10V19H13V20H16V21H20V22H15V21H12V20H9V19H7V20H4Z" fill="#5A2D21" stroke="none" /><path d="M5 18H7V19H10V20H13V21H16V22H14V21H11V20H8V19H5Z" fill="#A85B32" stroke="none" /><path d="M4 20H7V19H10V18H13V17H16V16H20V19H17V20H14V21H11V22H4Z" fill="#643421" stroke="none" /><path d="M6 20H8V19H11V18H14V17H18V18H16V19H13V20H10V21H6Z" fill="#B96835" stroke="none" /><rect x="17" y="17" width="2" height="1" fill="#D58A4B" stroke="none" /></g></svg>
