<svg xmlns="http://www.w3.org/2000/svg" viewBox="0 0 24 24" shape-rendering="crispEdges"><g id="cactus" stroke="none"><path fill="#176B43" d="M10 3h4v1h1v6h1V7h1V6h2v1h1v4h-1v1h-4v4H9v-2H6v-1H5v-1H4V8h1V7h2v1h1v3h1V4h1z" /><path fill="#3FAE55" d="M10 4h4v11h-4zM5 8h2v4h2v1H6v-1H5zM17 7h2v4h-4v-1h2z" /><path fill="#69C96F" d="M10 4h2v11h-2zM5 8h1v4H5zM17 7h1v3h-1z" /><g fill="#D7E9B9"><path d="M11 5h1v1h-1zM13 8h1v1h-1zM10 11h1v1h-1zM13 13h1v1h-1zM6 9h1v1H6zM18 8h1v1h-1z" /></g></g><g id="flowerpot" stroke="none"><path fill="#713B2D" d="M7 15h10v3h-1v3h-1v1H9v-1H8v-3H7z" /><path fill="#C96543" d="M8 16h8v1H8z" /><path fill="#E07A50" d="M9 18h6v3H9z" /><path fill="#F09A63" d="M9 18h2v2H9z" /></g></svg>
