<svg xmlns="http://www.w3.org/2000/svg" viewBox="0 0 24 24" shape-rendering="crispEdges"><g id="rainbow" stroke="none"><path fill="#E94B5F" d="M3 18V10H4V8H6V6H8V4H10V3H14V4H16V6H18V8H20V10H21V18Z" /><path fill="#F28C38" d="M4 18V10H5V8H7V6H9V5H15V6H17V8H19V10H20V18Z" /><path fill="#FFD34E" d="M5 18V11H6V9H8V7H10V6H14V7H16V9H18V11H19V18Z" /><path fill="#55B96B" d="M6 18V12H7V10H9V8H15V10H17V12H18V18Z" /><path fill="#4F8EDB" fill-rule="evenodd" d="M7 18V13H8V11H10V9H14V11H16V13H17V18ZM10 18H14V13H13V12H11V13H10Z" /></g><g id="clouds" stroke="none"><path fill="#B8D7E8" d="M2 18H3V16H4V15H5V14H7V15H8V17H9V20H8V21H3V20H2Z" /><path fill="#FFFFFF" d="M3 18H4V16H5V15H7V16H8V18H9V19H8V20H3Z" /><path fill="#B8D7E8" d="M15 18H16V16H17V15H18V14H20V15H21V17H22V20H21V21H16V20H15Z" /><path fill="#FFFFFF" d="M16 18H17V16H18V15H20V16H21V18H22V19H21V20H16Z" /></g></svg>
