<svg xmlns="http://www.w3.org/2000/svg" viewBox="0 0 24 24" shape-rendering="crispEdges"><g id="strawberry"><path fill="#9E2435" stroke="none" d="M5 7H9V8H16V7H20V8H21V13H20V16H19V18H17V20H15V22H10V21H8V19H7V17H6V15H5V13H4V9H5Z" /><path fill="#F23845" stroke="none" d="M6 8H10V9H15V8H19V9H20V13H19V16H18V18H16V20H14V21H10V20H9V18H8V16H7V13H6Z" /><path fill="#FF5960" stroke="none" d="M7 9H10V10H8V13H7ZM9 10H11V11H9Z" /><g fill="#FFD34E" stroke="none"><rect x="10" y="11" width="1" height="2" /><rect x="15" y="10" width="1" height="2" /><rect x="13" y="14" width="1" height="2" /><rect x="9" y="15" width="1" height="2" /><rect x="16" y="16" width="1" height="2" /><rect x="11" y="18" width="1" height="2" /></g><path fill="#287A3C" stroke="none" d="M10 2H13V4H18V6H16V8H14V10H11V8H9V7H7V6H5V4H9V3H10Z" /><path fill="#55B84C" stroke="none" d="M11 3H13V6H16V5H17V6H15V7H13V9H11V7H9V6H7V5H11Z" /></g></svg>
